<svg id="Calque_1" data-name="Calque 1" xmlns="http://www.w3.org/2000/svg" viewBox="0 0 70.13 68.42"><defs><style>.cls-1,.cls-2{fill:none;stroke:#000;stroke-miterlimit:10;stroke-width:3.42px;}.cls-1,.cls-3{fill-rule:evenodd;}</style></defs><path class="cls-1" d="M36.36,52.47A15.82,15.82,0,0,1,20.25,36.94a5.61,5.61,0,0,1,0-.58A15.82,15.82,0,0,1,35.78,20.25h.58A15.83,15.83,0,0,1,52.47,35.79v.57A15.83,15.83,0,0,1,36.93,52.47h-.57" transform="translate(-1.29 -2.29)"/><rect class="cls-2" x="1.71" y="1.71" width="66.71" height="65" rx="17"/><g id="Composant_1_45" data-name="Composant 1 45"><path id="Tracé_3" data-name="Tracé 3" class="cls-3" d="M55.65,12.77A4.39,4.39,0,1,0,60,17.15a4.39,4.39,0,0,0-4.38-4.38" transform="translate(-1.29 -2.29)"/></g></svg>