<svg id="Calque_1" data-name="Calque 1" xmlns="http://www.w3.org/2000/svg" viewBox="0 0 69.64 67.91"><defs><style>.cls-1,.cls-2{fill:none;stroke:#000;stroke-miterlimit:10;stroke-width:2.41px;}.cls-1{fill-rule:evenodd;}</style></defs><path class="cls-1" d="M36.11,52.35A16,16,0,0,1,19.88,36.69a5.61,5.61,0,0,1,0-.58A16,16,0,0,1,35.53,19.88h.58A16,16,0,0,1,52.35,35.53v.58A16,16,0,0,1,36.69,52.35h-.58" transform="translate(-1.29 -2.29)"/><rect class="cls-2" x="1.21" y="1.21" width="67.22" height="65.5" rx="17.13"/><g id="Composant_1_45" data-name="Composant 1 45"><path id="Tracé_3" data-name="Tracé 3" class="cls-1" d="M55.55,12.33A4.42,4.42,0,1,0,60,16.75a4.48,4.48,0,0,0-4.42-4.42" transform="translate(-1.29 -2.29)"/></g></svg>