<?xml version="1.0" encoding="utf-8"?>
<!-- Generator: Adobe Illustrator 24.2.0, SVG Export Plug-In . SVG Version: 6.00 Build 0)  -->
<svg version="1.1" id="Calque_1" xmlns="http://www.w3.org/2000/svg" xmlns:xlink="http://www.w3.org/1999/xlink" x="0px" y="0px"
	 viewBox="0 0 270 137" style="enable-background:new 0 0 270 137;" xml:space="preserve">
<g>
	<g>
		<g>
			<g>
				<path d="M42.9,96.4c-5.7,0-11.3-1-16.8-2.9c-4.9-1.8-9.5-4.4-13.6-7.9c-0.3-0.3-0.4-0.7-0.1-1l7.7-9.3c0.2-0.3,0.7-0.3,1-0.1
					c3.1,2.4,6.4,4.3,9.6,5.8c3.8,1.7,8,2.6,12.5,2.6c3.7,0,6.6-0.7,8.7-2.1c2.2-1.5,3.3-3.5,3.3-6.1v-0.2c0-1.2-0.2-2.4-0.7-3.3
					c-0.5-1-1.4-1.9-2.7-2.8c-1.2-0.8-2.8-1.5-4.9-2.3c-2-0.7-4.7-1.5-7.9-2.3c-3.8-0.9-7.3-2-10.4-3.1c-3-1.1-5.6-2.5-7.7-4.2
					c-2-1.6-3.7-3.6-4.8-6c-1.1-2.4-1.7-5.4-1.7-9v-0.2c0-3.3,0.6-6.3,1.8-9c1.2-2.7,3-5,5.2-6.9c2.2-1.9,5-3.5,8.1-4.5
					c3.1-1,6.7-1.6,10.5-1.6c5.5,0,10.5,0.8,15.1,2.5c4,1.4,7.8,3.5,11.3,6c0.3,0.2,0.4,0.7,0.2,1l-6.8,9.9c-0.2,0.3-0.7,0.4-1,0.2
					c-3-1.9-5.9-3.5-8.8-4.7c-3.4-1.4-6.8-2.1-10.2-2.1c-3.5,0-6.2,0.7-8,2.1c-1.9,1.5-2.9,3.3-2.9,5.5v0.2c0,1.4,0.3,2.6,0.8,3.7
					c0.6,1.1,1.6,2,3,2.9c1.3,0.8,3.1,1.5,5.3,2.2c2.2,0.7,4.9,1.4,8.2,2.3c3.8,1,7.2,2.1,10.2,3.4c2.9,1.2,5.4,2.7,7.4,4.4
					c2,1.7,3.4,3.7,4.4,5.9c1,2.3,1.5,5,1.5,8.2v0.2c0,3.6-0.7,6.9-2,9.7c-1.3,2.8-3.1,5.2-5.5,7.1c-2.3,1.9-5.2,3.4-8.5,4.4
					C50.6,95.9,46.9,96.4,42.9,96.4z"/>
			</g>
			<g>
				<path d="M158.7,42.9h-44.9c-0.4,0-0.7-0.3-0.7-0.7v-5.3c0-0.4,0.3-0.7,0.7-0.7h44.9c0.4,0,0.7,0.3,0.7,0.7v5.3
					C159.5,42.5,159.1,42.9,158.7,42.9z"/>
			</g>
			<path d="M111.6,95.3h16.6c0.1,0,0.1-0.1,0.1-0.2c-0.8-0.6-1.5-1.3-2.1-2c-1.5-1.6-2.6-3.5-3.4-5.7c-0.8-2.1-1.2-4.4-1.2-6.8v-0.2
				c0-2.4,0.4-4.7,1.1-6.8c0.7-2.1,1.8-4,3.2-5.6c1.4-1.6,3.1-2.9,5.1-3.8c2-0.9,4.3-1.4,6.8-1.4c2.4,0,4.6,0.5,6.6,1.5
				c2,1,3.8,2.3,5.2,3.9c1.5,1.6,2.6,3.6,3.4,5.7c0.8,2.1,1.1,4.4,1.1,6.8v0.2c0,2.4-0.4,4.7-1.1,6.8c-0.7,2.1-1.8,4-3.2,5.6
				c-0.6,0.7-1.2,1.3-1.9,1.8c-0.1,0.1,0,0.2,0.1,0.2h16.1c0,0,0.1,0,0.1-0.1c0.8-1.2,1.4-2.5,2-3.8c1.5-3.5,2.3-7.4,2.3-11.4v-0.2
				c0-4.1-0.8-7.9-2.3-11.4c-1.5-3.5-3.7-6.7-6.4-9.3s-5.9-4.7-9.6-6.2c-3.7-1.5-7.8-2.3-12.2-2.3c-4.4,0-8.5,0.8-12.3,2.3
				c-3.7,1.5-7,3.7-9.7,6.3c-2.7,2.7-4.9,5.8-6.4,9.3c-1.5,3.5-2.3,7.4-2.3,11.4v0.2c0,4.1,0.8,7.9,2.3,11.4
				c0.6,1.3,1.2,2.5,1.9,3.6C111.5,95.3,111.6,95.3,111.6,95.3z"/>
			<path d="M199,94.9l13.5-36.9l13.3,36.9c0.1,0.3,0.4,0.5,0.7,0.5h12.7c0.3,0,0.6-0.2,0.7-0.5l15.4-54.9c0.1-0.5-0.2-0.9-0.7-0.9
				h-12.7c-0.4,0-0.6,0.2-0.7,0.6l-8.3,38.2c0,0.1-0.2,0.1-0.2,0l-13.4-38.5c-0.1-0.3-0.4-0.5-0.7-0.5h-11.8c-0.3,0-0.6,0.2-0.7,0.5
				l-13.3,38.4c0,0.1-0.2,0.1-0.2,0l-8.1-38.1c-0.1-0.3-0.4-0.6-0.7-0.6h-13.1c-0.5,0-0.8,0.5-0.7,0.9L185,94.8
				c0.1,0.3,0.4,0.5,0.7,0.5h12.6C198.6,95.3,198.9,95.1,199,94.9z"/>
			<path d="M95.2,21H82.2c-0.4,0-0.7,0.3-0.7,0.7v72.8c0,0.4,0.3,0.7,0.7,0.7h13.1c0.4,0,0.7-0.3,0.7-0.7V21.8
				C96,21.4,95.7,21,95.2,21z"/>
		</g>
		<g>
			<path d="M57.8,119.6l1.2,1.2c-1,0.9-2.2,1.4-3.6,1.4c-0.8,0-1.6-0.1-2.3-0.4c-0.7-0.3-1.2-0.7-1.6-1.1c-0.4-0.5-0.7-1-0.9-1.6
				c-0.2-0.6-0.3-1.2-0.3-1.8c0-0.6,0.1-1.2,0.3-1.8c0.2-0.6,0.5-1.1,0.9-1.6c0.4-0.5,0.9-0.9,1.6-1.2c0.7-0.3,1.4-0.4,2.2-0.4
				c1.3,0,2.5,0.5,3.5,1.4l-1.2,1.2c-0.6-0.6-1.4-0.9-2.3-0.9c-1.1,0-1.9,0.3-2.4,1c-0.6,0.7-0.8,1.4-0.8,2.3s0.3,1.7,0.8,2.3
				c0.5,0.6,1.4,0.9,2.4,0.9c0.4,0,0.8-0.1,1.3-0.2S57.4,119.9,57.8,119.6z"/>
			<path d="M71.5,121.9v0.1h-2.1l-2.8-3.2h-1.8v3.2h-1.8v-9.5c0.5,0,1.2,0,2.2,0c1,0,1.8,0,2.3,0c1.1,0,1.9,0.3,2.5,0.9
				c0.6,0.6,0.9,1.3,0.9,2.2c0,0.7-0.2,1.4-0.6,1.9s-1,0.9-1.8,1.1L71.5,121.9z M67.6,114.1h-2.7v3h2.7c0.5,0,0.9-0.2,1.2-0.4
				s0.4-0.7,0.4-1.1c0-0.4-0.1-0.8-0.4-1.1C68.5,114.3,68.1,114.1,67.6,114.1z"/>
			<path d="M82.8,120.2v1.8h-7.1v-9.5h7.1v1.7h-5.3v2.2h5.2v1.7h-5.2v2.2L82.8,120.2L82.8,120.2z"/>
			<path d="M94.9,122l-0.8-1.8h-5l-0.8,1.8h-1.9l4.3-9.5h2l4.3,9.5H94.9z M93.4,118.5l-1.8-4.1l-1.8,4.1H93.4z"/>
			<path d="M102,122v-7.9h-3v-1.6h7.8v1.6h-3v7.9H102z"/>
			<path d="M112.7,122h-1.8v-9.5h1.8V122z"/>
			<path d="M126.3,112.5l-3.9,9.6h-1.9l-3.9-9.6h2l2.9,7.4l2.9-7.4H126.3z"/>
			<path d="M137.4,120.2v1.8h-7.1v-9.5h7.1v1.7h-5.3v2.2h5.1v1.7h-5.1v2.2L137.4,120.2L137.4,120.2z"/>
			<path d="M157.9,114l-1.4,0.7c-0.2-0.3-0.5-0.5-0.9-0.8s-0.9-0.3-1.4-0.3c-0.6,0-1.1,0.1-1.5,0.3c-0.3,0.2-0.5,0.5-0.5,0.9
				c0,0.3,0.1,0.5,0.3,0.6c0.2,0.2,0.4,0.3,0.7,0.4s0.6,0.1,1.1,0.2c0.4,0.1,0.8,0.1,1.2,0.2c0.3,0.1,0.7,0.2,1,0.3s0.6,0.3,0.9,0.5
				s0.4,0.5,0.6,0.8s0.2,0.7,0.2,1.2c0,0.7-0.2,1.2-0.6,1.7s-0.9,0.8-1.4,1c-0.6,0.2-1.2,0.3-2,0.3c-2.1,0-3.5-0.8-4.1-2.3l1.5-0.8
				c0.2,0.5,0.5,0.9,1,1.1c0.5,0.2,1,0.4,1.6,0.4s1.1-0.1,1.6-0.3c0.4-0.2,0.6-0.6,0.6-1.1c0-0.8-0.7-1.2-2.2-1.4
				c-0.6-0.1-1-0.2-1.4-0.2s-0.8-0.3-1.2-0.5s-0.7-0.5-0.9-0.9c-0.2-0.4-0.3-0.8-0.3-1.3c0-0.6,0.2-1.1,0.6-1.6
				c0.4-0.4,0.8-0.7,1.4-0.9s1.1-0.3,1.7-0.3C156,112.2,157.2,112.8,157.9,114z"/>
			<path d="M164.6,122v-7.9h-3v-1.6h7.8v1.6h-3v7.9H164.6z"/>
			<path d="M179.9,112.5h1.8v5.4c0,1.4-0.4,2.4-1.1,3.2s-1.8,1.1-3,1.1c-1.2,0-2.2-0.4-3-1.1c-0.8-0.7-1.2-1.8-1.2-3.2v-5.4h1.8v5.4
				c0,0.8,0.2,1.5,0.7,1.9c0.4,0.4,1,0.7,1.8,0.7c0.7,0,1.3-0.2,1.7-0.7s0.6-1.1,0.6-1.9L179.9,112.5L179.9,112.5z"/>
			<path d="M190.3,112.5c0.8,0,1.5,0.1,2.1,0.4s1.1,0.6,1.5,1.1s0.7,0.9,0.9,1.5c0.2,0.5,0.3,1.1,0.3,1.7c0,0.6-0.1,1.2-0.3,1.8
				c-0.2,0.6-0.5,1.1-0.8,1.5c-0.4,0.5-0.9,0.8-1.5,1.1c-0.6,0.3-1.3,0.4-2.1,0.4h-3.7v-9.5L190.3,112.5L190.3,112.5z M188.3,114.2
				v6.1h2c1,0,1.8-0.3,2.2-0.9c0.5-0.6,0.7-1.3,0.7-2.2c0-0.8-0.3-1.5-0.8-2.1c-0.5-0.6-1.2-0.9-2.2-0.9L188.3,114.2L188.3,114.2z"
				/>
			<path d="M201.2,122h-1.8v-9.5h1.8V122z"/>
			<path d="M210.6,112.3c0.8,0,1.5,0.2,2.1,0.4c0.6,0.3,1.1,0.7,1.5,1.1c0.4,0.5,0.7,1,0.9,1.6c0.2,0.6,0.3,1.2,0.3,1.8
				c0,0.6-0.1,1.2-0.3,1.8c-0.2,0.6-0.5,1.1-0.9,1.6c-0.4,0.5-0.9,0.8-1.5,1.1c-0.6,0.3-1.4,0.4-2.2,0.4s-1.5-0.1-2.2-0.4
				c-0.6-0.3-1.1-0.6-1.5-1.1s-0.7-1-0.9-1.6c-0.2-0.6-0.3-1.2-0.3-1.8c0-1.5,0.5-2.7,1.4-3.6C208,112.8,209.2,112.3,210.6,112.3z
				 M207.4,117.3c0,0.9,0.3,1.7,0.8,2.3s1.3,0.9,2.3,0.9c1,0,1.8-0.3,2.3-1c0.5-0.6,0.8-1.4,0.8-2.3c0-0.9-0.2-1.7-0.8-2.3
				c-0.5-0.7-1.3-1-2.3-1.1c-1,0-1.8,0.3-2.3,1C207.7,115.5,207.4,116.3,207.4,117.3z"/>
		</g>
	</g>
</g>
</svg>
