<?xml version="1.0" encoding="iso-8859-1"?>
<!-- Generator: Adobe Illustrator 22.1.0, SVG Export Plug-In . SVG Version: 6.00 Build 0)  -->
<svg version="1.1" id="Calque_1" xmlns="http://www.w3.org/2000/svg" xmlns:xlink="http://www.w3.org/1999/xlink" x="0px" y="0px"
	 width="281.317px" height="58.732px" viewBox="0 0 281.317 58.732" enable-background="new 0 0 281.317 58.732"
	 xml:space="preserve">
<g>
	<path d="M22.098,28.494c-0.804-0.688-1.79-1.279-2.959-1.77c-1.17-0.492-2.501-0.934-3.994-1.328
		c-1.269-0.337-2.318-0.632-3.149-0.885c-0.831-0.253-1.487-0.52-1.966-0.801c-0.479-0.281-0.81-0.596-0.993-0.949
		c-0.183-0.351-0.275-0.765-0.275-1.243v-0.084c0-0.731,0.316-1.342,0.948-1.834c0.632-0.492,1.581-0.738,2.845-0.738
		c1.265,0,2.53,0.26,3.794,0.78c1.265,0.52,2.557,1.23,3.879,2.129l3.373-4.89c-1.518-1.208-3.183-2.135-4.996-2.782
		c-1.813-0.646-3.801-0.97-5.965-0.97c-1.518,0-2.907,0.211-4.166,0.632c-1.26,0.421-2.344,1.026-3.251,1.813
		c-0.908,0.787-1.613,1.722-2.115,2.804c-0.503,1.082-0.754,2.297-0.754,3.646v0.084c0,1.462,0.233,2.685,0.698,3.668
		c0.465,0.984,1.12,1.806,1.966,2.466c0.845,0.661,1.873,1.216,3.085,1.665c1.212,0.45,2.564,0.857,4.059,1.223
		c1.24,0.31,2.247,0.604,3.022,0.885c0.775,0.281,1.381,0.563,1.817,0.843c0.437,0.281,0.733,0.584,0.888,0.906
		c0.155,0.323,0.232,0.696,0.232,1.117v0.085c0,0.872-0.373,1.553-1.117,2.045c-0.745,0.492-1.792,0.738-3.141,0.738
		c-1.686,0-3.24-0.323-4.658-0.97c-1.42-0.646-2.804-1.518-4.153-2.614l-3.836,4.595c1.771,1.602,3.738,2.789,5.902,3.562
		c2.164,0.773,4.37,1.159,6.619,1.159c1.602,0,3.061-0.204,4.378-0.611c1.316-0.407,2.449-0.997,3.399-1.77
		c0.949-0.773,1.689-1.728,2.22-2.866c0.53-1.139,0.796-2.438,0.796-3.9v-0.084c0-1.292-0.205-2.403-0.613-3.33
		C23.507,29.99,22.901,29.183,22.098,28.494z"/>
	<rect x="28.744" y="12.285" width="6.408" height="30.775"/>
	<path d="M60.003,23.435c-1.082-1.054-2.368-1.883-3.857-2.487c-1.49-0.605-3.106-0.907-4.848-0.907c-1.771,0-3.401,0.31-4.89,0.928
		c-1.49,0.618-2.782,1.461-3.878,2.529c-1.096,1.068-1.954,2.313-2.572,3.731c-0.618,1.419-0.927,2.944-0.927,4.574v0.085
		c0,1.63,0.309,3.155,0.927,4.574c0.618,1.419,1.468,2.656,2.551,3.71c1.082,1.054,2.367,1.883,3.857,2.488
		c1.489,0.604,3.105,0.906,4.848,0.906c1.771,0,3.4-0.31,4.89-0.927c1.489-0.618,2.783-1.461,3.879-2.53
		c1.096-1.068,1.953-2.311,2.572-3.731c0.618-1.419,0.927-2.943,0.927-4.574v-0.085c0-1.63-0.31-3.154-0.927-4.574
		C61.935,25.726,61.085,24.489,60.003,23.435z M57.158,31.888c0,0.843-0.134,1.638-0.401,2.382c-0.267,0.745-0.654,1.398-1.159,1.96
		c-0.506,0.563-1.117,1.005-1.834,1.328c-0.716,0.323-1.539,0.485-2.466,0.485c-0.9,0-1.707-0.168-2.424-0.506
		c-0.717-0.337-1.343-0.794-1.876-1.37c-0.534-0.576-0.942-1.237-1.223-1.981c-0.281-0.744-0.422-1.539-0.422-2.382v-0.085
		c0-0.843,0.133-1.636,0.401-2.382c0.267-0.744,0.653-1.398,1.159-1.96c0.506-0.562,1.117-1.004,1.833-1.328
		c0.717-0.323,1.539-0.485,2.466-0.485c0.871,0,1.672,0.169,2.403,0.506c0.731,0.337,1.363,0.795,1.897,1.371
		c0.533,0.576,0.941,1.237,1.223,1.981c0.281,0.745,0.422,1.538,0.422,2.382V31.888z"/>
	<polygon points="89.407,34.206 85.107,20.379 79.584,20.379 75.327,34.164 71.701,20.463 65.209,20.463 72.165,43.228 
		77.898,43.228 82.325,29.358 86.667,43.228 92.442,43.228 99.482,20.463 93.117,20.463 	"/>
	<rect x="44.215" y="13.637" width="14.079" height="3.058"/>
	<path d="M130.122,36.651c-1.167,0.618-2.593,0.927-4.279,0.927c-1.265,0-2.424-0.245-3.478-0.738
		c-1.054-0.491-1.954-1.159-2.698-2.002c-0.745-0.843-1.328-1.826-1.749-2.951c-0.421-1.124-0.632-2.319-0.632-3.583V28.22
		c0-1.264,0.211-2.452,0.632-3.562c0.421-1.11,1.012-2.087,1.77-2.93c0.759-0.843,1.665-1.503,2.72-1.981
		c1.053-0.477,2.198-0.717,3.436-0.717c1.489,0,2.831,0.295,4.026,0.885c0.619,0.306,1.233,0.676,1.84,1.103l0.978-1.161
		l3.139-3.727c-0.167-0.128-0.326-0.265-0.498-0.388c-0.787-0.562-1.644-1.039-2.572-1.434c-0.927-0.393-1.96-0.702-3.098-0.927
		c-1.138-0.225-2.396-0.337-3.773-0.337c-2.277,0-4.357,0.4-6.239,1.202c-1.883,0.801-3.499,1.897-4.848,3.288
		c-1.349,1.391-2.403,3.008-3.162,4.848c-0.759,1.841-1.139,3.815-1.139,5.924v0.084c0,2.108,0.38,4.09,1.139,5.944
		c0.759,1.855,1.813,3.464,3.162,4.827c1.349,1.364,2.951,2.438,4.806,3.225c1.855,0.787,3.864,1.181,6.028,1.181
		c1.434,0,2.726-0.12,3.879-0.358c1.152-0.238,2.213-0.59,3.183-1.054c0.969-0.464,1.861-1.018,2.676-1.665
		c0.209-0.166,0.412-0.353,0.617-0.531l-4.011-4.488C131.36,35.926,130.742,36.323,130.122,36.651z"/>
	<path d="M174.771,23.773c-0.914-1.139-2.059-2.045-3.436-2.72c-1.377-0.674-3.008-1.012-4.89-1.012
		c-1.659,0-3.169,0.31-4.532,0.928c-1.363,0.618-2.536,1.461-3.52,2.529c-0.985,1.068-1.75,2.319-2.298,3.752
		c-0.548,1.434-0.822,2.951-0.822,4.553v0.085c0,1.743,0.296,3.324,0.885,4.743c0.59,1.419,1.413,2.649,2.467,3.689
		c1.053,1.04,2.304,1.841,3.752,2.403c1.447,0.562,3.015,0.843,4.701,0.843c2.051,0,3.836-0.373,5.353-1.117
		c1.518-0.745,2.81-1.777,3.879-3.098l-3.668-3.246c-0.9,0.815-1.771,1.406-2.614,1.771c-0.843,0.365-1.799,0.548-2.867,0.548
		c-1.434,0-2.634-0.372-3.604-1.117c-0.97-0.744-1.609-1.847-1.918-3.309h15.724c0.028-0.309,0.049-0.575,0.064-0.801
		c0.014-0.225,0.021-0.492,0.021-0.801v-0.085c0-1.602-0.218-3.14-0.653-4.616C176.359,26.218,175.684,24.911,174.771,23.773z
		 M161.555,29.99c0.254-1.461,0.794-2.627,1.624-3.499c0.828-0.871,1.918-1.307,3.267-1.307c1.349,0,2.431,0.443,3.246,1.328
		c0.815,0.885,1.321,2.045,1.517,3.478H161.555z"/>
	<path d="M215.026,14.688h-6.408v5.775h-2.698v3.058h2.698v13.13c0,1.321,0.162,2.41,0.485,3.267
		c0.323,0.858,0.773,1.553,1.349,2.087c0.576,0.534,1.265,0.907,2.066,1.118c0.801,0.21,1.693,0.316,2.677,0.316
		c1.068,0,2.009-0.12,2.824-0.358c0.815-0.238,1.56-0.554,2.234-0.949v-5.143c-0.984,0.534-2.038,0.801-3.162,0.801
		c-1.377,0-2.065-0.73-2.065-2.192V23.522h5.312v-3.058h-5.312V14.688z"/>
	<rect x="224.3" y="20.463" width="6.408" height="22.596"/>
	<rect x="224.131" y="12.285" width="6.745" height="5.691"/>
	<polygon points="245.504,35.597 240.446,20.463 233.658,20.463 242.553,43.228 248.371,43.228 257.266,20.463 250.605,20.463 	"/>
	<path d="M280.347,27.693c-0.436-1.475-1.111-2.783-2.024-3.921c-0.914-1.139-2.059-2.045-3.436-2.72
		c-1.377-0.674-3.008-1.012-4.89-1.012c-1.659,0-3.169,0.31-4.532,0.928c-1.363,0.618-2.536,1.461-3.52,2.529
		c-0.985,1.068-1.75,2.319-2.298,3.752c-0.548,1.434-0.822,2.951-0.822,4.553v0.085c0,1.743,0.296,3.324,0.885,4.743
		c0.59,1.419,1.413,2.649,2.467,3.689c1.054,1.04,2.304,1.841,3.752,2.403c1.447,0.562,3.014,0.843,4.701,0.843
		c2.051,0,3.836-0.373,5.353-1.117c1.518-0.745,2.81-1.777,3.879-3.098l-3.668-3.246c-0.9,0.815-1.771,1.406-2.614,1.771
		c-0.843,0.365-1.799,0.548-2.867,0.548c-1.434,0-2.634-0.372-3.604-1.117c-0.97-0.744-1.609-1.847-1.918-3.309h15.724
		c0.028-0.309,0.049-0.575,0.064-0.801c0.013-0.225,0.021-0.492,0.021-0.801v-0.085C281,30.707,280.782,29.169,280.347,27.693z
		 M265.107,29.99c0.254-1.461,0.794-2.627,1.624-3.499c0.828-0.871,1.918-1.307,3.267-1.307s2.431,0.443,3.246,1.328
		c0.815,0.885,1.321,2.045,1.517,3.478H265.107z"/>
	<path d="M197.586,23.044c-0.553-0.479-1.002-0.927-1.508-1.297c-3.497-2.561-8.721-2.22-12.209,0.778
		c-5.406,4.648-5.406,13.898-0.048,18.607c3.753,3.299,10.22,3.375,13.535-0.416c0.047-0.054,0.207-0.239,0.207-0.239l0.29,2.582
		h5.243V20.463c0,0-3.473,0-5.24,0C197.768,21.192,197.682,22.247,197.586,23.044z M191.521,37.931
		c-3.358-0.008-6.032-2.722-6.044-6.134c-0.011-3.352,2.664-6.057,6.012-6.077c3.412-0.021,5.959,2.56,5.967,6.047
		C197.465,35.309,194.933,37.939,191.521,37.931z"/>
	<path d="M150.947,20.031c-2.333,0-4.019,0.928-5.059,2.783l-0.464-2.344h-5.622v22.59h6.424V30.141c0-1.293,0.337-2.269,1.012-2.93
		c0.674-0.66,1.532-0.991,2.572-0.991c1.07,0,2.069,0.305,2.998,0.909l3.133-5.331C154.608,20.623,152.945,20.031,150.947,20.031z"
		/>
</g>
<g>
</g>
<g>
</g>
<g>
</g>
<g>
</g>
<g>
</g>
<g>
</g>
</svg>
