<?xml version="1.0" encoding="utf-8"?>
<!-- Generator: Adobe Illustrator 24.2.0, SVG Export Plug-In . SVG Version: 6.00 Build 0)  -->
<svg version="1.1" id="Calque_1" xmlns="http://www.w3.org/2000/svg" xmlns:xlink="http://www.w3.org/1999/xlink" x="0px" y="0px"
	 viewBox="0 0 270 137" style="enable-background:new 0 0 270 137;" xml:space="preserve">
<style type="text/css">
	.st0{fill:#292623;}
</style>
<g>
	<g>
		<g>
			<g>
				<path class="st0" d="M42.87,96.43c-5.67,0-11.31-0.99-16.77-2.94c-4.92-1.76-9.5-4.41-13.64-7.89
					c-0.31-0.26-0.35-0.72-0.09-1.03l7.73-9.26c0.25-0.3,0.7-0.35,1.01-0.11c3.13,2.39,6.36,4.35,9.62,5.84
					c3.78,1.72,7.98,2.6,12.47,2.6c3.68,0,6.6-0.7,8.68-2.08c2.22-1.47,3.35-3.53,3.35-6.14v-0.22c0-1.24-0.24-2.36-0.7-3.33
					c-0.48-1-1.38-1.93-2.66-2.76c-1.19-0.76-2.84-1.53-4.9-2.28c-2.04-0.74-4.7-1.52-7.92-2.32c-3.81-0.93-7.3-1.98-10.39-3.13
					c-3.02-1.12-5.61-2.52-7.71-4.15c-2.05-1.6-3.66-3.62-4.79-6.01c-1.13-2.4-1.71-5.44-1.71-9.05v-0.22c0-3.32,0.62-6.35,1.85-9
					c1.23-2.66,2.99-4.98,5.21-6.91c2.24-1.94,4.95-3.45,8.06-4.49c3.14-1.05,6.65-1.58,10.45-1.58c5.45,0,10.53,0.82,15.08,2.45
					c4.04,1.44,7.84,3.47,11.31,6.03c0.32,0.23,0.39,0.68,0.17,1.01l-6.8,9.86c-0.23,0.33-0.67,0.41-1,0.2
					c-2.97-1.91-5.92-3.48-8.78-4.65c-3.38-1.39-6.81-2.09-10.2-2.09c-3.49,0-6.17,0.71-7.98,2.12c-1.89,1.47-2.85,3.34-2.85,5.55
					v0.22c0,1.4,0.28,2.64,0.83,3.69c0.56,1.08,1.56,2.04,2.96,2.86c1.3,0.76,3.08,1.49,5.3,2.17c2.17,0.66,4.92,1.43,8.18,2.3
					c3.79,1,7.22,2.14,10.2,3.39c2.91,1.22,5.39,2.71,7.38,4.41c1.95,1.67,3.44,3.66,4.43,5.91c1,2.26,1.5,5.02,1.5,8.2v0.22
					c0,3.61-0.66,6.86-1.96,9.66c-1.3,2.79-3.14,5.16-5.46,7.05c-2.34,1.91-5.19,3.39-8.45,4.4C50.6,95.91,46.89,96.43,42.87,96.43z
					"/>
			</g>
			<g>
				<path class="st0" d="M158.73,42.86h-44.95c-0.41,0-0.73-0.33-0.73-0.73v-5.34c0-0.41,0.33-0.73,0.73-0.73h44.95
					c0.41,0,0.73,0.33,0.73,0.73v5.34C159.47,42.53,159.14,42.86,158.73,42.86z"/>
			</g>
			<path class="st0" d="M111.59,95.34h16.64c0.1,0,0.14-0.12,0.06-0.18c-0.76-0.6-1.48-1.28-2.13-2.01
				c-1.46-1.64-2.6-3.54-3.37-5.67c-0.77-2.11-1.15-4.38-1.15-6.77v-0.23c0-2.38,0.37-4.65,1.09-6.75c0.73-2.12,1.81-4.01,3.2-5.62
				c1.4-1.61,3.11-2.9,5.08-3.83c1.98-0.93,4.27-1.4,6.8-1.4c2.39,0,4.63,0.49,6.65,1.46c2,0.96,3.76,2.28,5.22,3.93
				c1.46,1.64,2.59,3.55,3.36,5.67c0.77,2.11,1.15,4.39,1.15,6.77v0.23c0,2.38-0.37,4.65-1.09,6.75c-0.73,2.12-1.81,4.01-3.2,5.61
				c-0.59,0.68-1.23,1.3-1.92,1.85c-0.08,0.06-0.03,0.18,0.06,0.18h16.06c0.04,0,0.07-0.02,0.09-0.05c0.75-1.22,1.42-2.49,2.01-3.82
				c1.53-3.53,2.31-7.37,2.31-11.42v-0.22c0-4.05-0.78-7.89-2.31-11.42c-1.54-3.53-3.68-6.65-6.37-9.27
				c-2.69-2.62-5.93-4.71-9.65-6.22c-3.71-1.51-7.8-2.27-12.16-2.27c-4.42,0-8.54,0.78-12.26,2.32c-3.71,1.54-6.98,3.67-9.71,6.33
				c-2.73,2.66-4.89,5.8-6.43,9.33c-1.54,3.52-2.31,7.37-2.31,11.42v0.22c0,4.06,0.78,7.9,2.31,11.42c0.55,1.26,1.17,2.46,1.87,3.6
				C111.52,95.32,111.55,95.34,111.59,95.34z"/>
			<path class="st0" d="M198.98,94.86l13.5-36.92l13.27,36.91c0.1,0.29,0.38,0.49,0.69,0.49h12.66c0.33,0,0.62-0.22,0.71-0.54
				l15.44-54.93c0.13-0.47-0.22-0.93-0.71-0.93h-12.74c-0.35,0-0.64,0.24-0.72,0.58l-8.32,38.16c-0.02,0.1-0.16,0.11-0.2,0.01
				l-13.44-38.47c-0.1-0.29-0.38-0.49-0.69-0.49h-11.79c-0.31,0-0.59,0.2-0.69,0.49l-13.34,38.4c-0.03,0.1-0.18,0.09-0.2-0.01
				l-8.1-38.08c-0.07-0.34-0.37-0.58-0.72-0.58h-13.07c-0.49,0-0.84,0.46-0.71,0.93l15.23,54.93c0.09,0.32,0.38,0.54,0.71,0.54
				h12.55C198.6,95.34,198.87,95.14,198.98,94.86z"/>
			<path class="st0" d="M95.25,21.03H82.19c-0.41,0-0.73,0.33-0.73,0.73V94.6c0,0.41,0.33,0.73,0.73,0.73h13.07
				c0.41,0,0.73-0.33,0.73-0.73V21.76C95.99,21.35,95.66,21.03,95.25,21.03z"/>
		</g>
		<g>
			<path class="st0" d="M57.75,119.55l1.22,1.24c-0.95,0.94-2.15,1.41-3.61,1.41c-0.85,0-1.61-0.14-2.27-0.41
				c-0.66-0.28-1.19-0.65-1.58-1.11c-0.39-0.47-0.69-0.98-0.89-1.56c-0.2-0.57-0.3-1.18-0.3-1.82c0-0.63,0.1-1.24,0.31-1.83
				c0.2-0.59,0.51-1.12,0.91-1.6c0.4-0.48,0.93-0.86,1.6-1.15c0.66-0.29,1.4-0.43,2.23-0.43c1.34,0,2.5,0.48,3.49,1.45l-1.2,1.15
				c-0.61-0.6-1.37-0.9-2.3-0.9c-1.07,0-1.88,0.33-2.44,0.98c-0.56,0.66-0.84,1.43-0.83,2.32c0.01,0.89,0.29,1.65,0.83,2.27
				c0.54,0.63,1.36,0.94,2.44,0.94c0.43,0,0.85-0.08,1.28-0.25S57.44,119.86,57.75,119.55z"/>
			<path class="st0" d="M71.51,121.86v0.12h-2.05l-2.76-3.18h-1.82v3.18h-1.79v-9.52c0.5,0,1.25,0,2.25,0.01
				c1,0,1.76,0.01,2.27,0.01c1.07,0.01,1.91,0.32,2.51,0.93c0.61,0.61,0.91,1.35,0.91,2.22c0,0.72-0.19,1.36-0.57,1.91
				c-0.38,0.55-0.99,0.91-1.83,1.08L71.51,121.86z M67.61,114.14h-2.73v3.04h2.73c0.53,0,0.94-0.15,1.22-0.45s0.41-0.66,0.41-1.07
				c0-0.42-0.14-0.77-0.42-1.07C68.54,114.29,68.14,114.14,67.61,114.14z"/>
			<path class="st0" d="M82.81,120.21v1.77h-7.12v-9.51h7.12v1.74h-5.34v2.19h5.15v1.67h-5.15v2.15H82.81z"/>
			<path class="st0" d="M94.88,121.98l-0.8-1.79h-4.97l-0.81,1.79h-1.94l4.26-9.51h1.96l4.26,9.51H94.88z M93.36,118.52l-1.77-4.05
				l-1.77,4.05H93.36z"/>
			<path class="st0" d="M102,121.98v-7.88h-3.02v-1.63h7.82v1.63h-3.02v7.88H102z"/>
			<path class="st0" d="M112.66,121.98h-1.78v-9.51h1.78V121.98z"/>
			<path class="st0" d="M126.35,112.47l-3.95,9.55h-1.86l-3.95-9.55h2.01l2.87,7.4l2.88-7.4H126.35z"/>
			<path class="st0" d="M137.4,120.21v1.77h-7.12v-9.51h7.12v1.74h-5.34v2.19h5.15v1.67h-5.15v2.15H137.4z"/>
			<path class="st0" d="M157.85,114.03l-1.43,0.73c-0.17-0.29-0.47-0.54-0.89-0.75c-0.42-0.21-0.88-0.31-1.37-0.31
				c-0.64,0-1.13,0.12-1.47,0.35c-0.34,0.24-0.5,0.54-0.5,0.91c0,0.26,0.1,0.48,0.31,0.64c0.21,0.17,0.45,0.29,0.73,0.36
				c0.28,0.07,0.64,0.14,1.07,0.19c0.44,0.05,0.83,0.12,1.17,0.19c0.33,0.07,0.68,0.18,1.03,0.33c0.35,0.15,0.64,0.33,0.86,0.53
				c0.22,0.2,0.41,0.48,0.55,0.82c0.14,0.34,0.22,0.73,0.22,1.16c0,0.68-0.19,1.25-0.57,1.72c-0.38,0.47-0.86,0.8-1.45,1.01
				c-0.58,0.2-1.24,0.31-1.98,0.31c-2.13,0-3.51-0.78-4.14-2.34l1.49-0.77c0.2,0.5,0.54,0.87,1.03,1.13
				c0.48,0.25,1.03,0.38,1.65,0.38c0.62,0,1.15-0.12,1.56-0.35c0.42-0.24,0.62-0.59,0.62-1.07c0-0.78-0.73-1.24-2.2-1.4
				c-0.55-0.06-1.03-0.15-1.42-0.25c-0.39-0.1-0.78-0.26-1.16-0.47c-0.38-0.21-0.67-0.49-0.86-0.86c-0.19-0.36-0.29-0.8-0.29-1.3
				c0-0.62,0.19-1.14,0.57-1.58c0.38-0.43,0.84-0.74,1.37-0.92c0.53-0.18,1.11-0.27,1.74-0.28
				C155.99,112.15,157.23,112.78,157.85,114.03z"/>
			<path class="st0" d="M164.61,121.98v-7.88h-3.02v-1.63h7.82v1.63h-3.02v7.88H164.61z"/>
			<path class="st0" d="M179.93,112.49h1.78v5.45c0,1.37-0.38,2.42-1.13,3.15c-0.75,0.73-1.75,1.1-2.99,1.1
				c-1.21,0-2.22-0.37-3.02-1.1c-0.8-0.73-1.2-1.78-1.2-3.15v-5.45h1.78v5.45c0,0.84,0.22,1.49,0.67,1.94
				c0.44,0.45,1.04,0.68,1.79,0.68c0.73,0,1.3-0.23,1.71-0.69c0.41-0.46,0.61-1.1,0.61-1.93V112.49z"/>
			<path class="st0" d="M190.29,112.47c0.79,0,1.49,0.13,2.11,0.39c0.62,0.26,1.11,0.62,1.49,1.07c0.38,0.45,0.66,0.94,0.86,1.49
				c0.19,0.54,0.3,1.12,0.31,1.72c0.01,0.62-0.08,1.21-0.26,1.77c-0.19,0.57-0.47,1.08-0.84,1.54c-0.38,0.46-0.88,0.83-1.51,1.11
				c-0.63,0.28-1.34,0.41-2.14,0.41h-3.74v-9.51H190.29z M188.34,114.17v6.08h1.96c1,0,1.76-0.31,2.25-0.92
				c0.5-0.61,0.74-1.35,0.72-2.21c-0.02-0.82-0.28-1.52-0.78-2.1c-0.5-0.57-1.23-0.86-2.19-0.86H188.34z"/>
			<path class="st0" d="M201.25,121.98h-1.78v-9.51h1.78V121.98z"/>
			<path class="st0" d="M210.6,112.28c0.78,0.01,1.48,0.16,2.12,0.44c0.63,0.29,1.15,0.67,1.53,1.14c0.39,0.48,0.69,1.01,0.89,1.59
				c0.2,0.58,0.3,1.19,0.29,1.83c-0.01,0.63-0.11,1.24-0.31,1.81c-0.2,0.58-0.49,1.1-0.88,1.56c-0.39,0.47-0.89,0.84-1.53,1.12
				c-0.63,0.28-1.35,0.42-2.16,0.42c-0.81,0-1.53-0.14-2.17-0.41c-0.64-0.27-1.15-0.64-1.54-1.11c-0.39-0.47-0.68-0.99-0.88-1.56
				c-0.2-0.57-0.3-1.18-0.3-1.83c0-1.48,0.47-2.68,1.41-3.61C208.02,112.75,209.2,112.28,210.6,112.28z M207.43,117.32
				c0.03,0.89,0.3,1.65,0.81,2.28c0.51,0.63,1.28,0.95,2.32,0.95c1.03,0,1.8-0.32,2.32-0.96c0.51-0.64,0.78-1.4,0.79-2.29
				c0.02-0.89-0.24-1.67-0.76-2.35c-0.53-0.68-1.29-1.03-2.31-1.05c-0.99,0-1.77,0.33-2.34,0.98
				C207.68,115.54,207.41,116.35,207.43,117.32z"/>
		</g>
	</g>
</g>
</svg>
